/* XPM */
static char *result[] = {
/* columns rows colors chars-per-pixel */
"40 40 132 2 ",
"   c #B37E29",
".  c #DA6E1A",
"X  c #DC6E1B",
"o  c #E76815",
"O  c #E76915",
"+  c #E76916",
"@  c #E76917",
"#  c #E76A16",
"$  c #E76A17",
"%  c #E86915",
"&  c #E86916",
"*  c #E86917",
"=  c #E86A17",
"-  c #E76B19",
";  c #E86A18",
":  c #E86B18",
">  c #E96B18",
",  c #E86B19",
"<  c #E86B1A",
"1  c #E96C19",
"2  c #EA6C19",
"3  c #E86C1A",
"4  c #E86C1B",
"5  c #EA6D1A",
"6  c #EB6E1B",
"7  c #E86D1C",
"8  c #E86E1D",
"9  c #E86F1F",
"0  c #EC6F1C",
"q  c #ED701D",
"w  c #EE701D",
"e  c #ED711E",
"r  c #EE711E",
"t  c #E97020",
"y  c #E97121",
"u  c #EA7020",
"i  c #E97123",
"p  c #E97426",
"a  c #EA7427",
"s  c #EA762A",
"d  c #EB772B",
"f  c #EA772C",
"g  c #EB792E",
"h  c #EC7B32",
"j  c #EC7C33",
"k  c #EC7D34",
"l  c #EC7F37",
"z  c #5A9143",
"x  c #5B9143",
"c  c #5B9243",
"v  c #5C9344",
"b  c #5D9445",
"n  c #5D9744",
"m  c #5E9546",
"M  c #5E9944",
"N  c #609F44",
"B  c #659E44",
"V  c #6A9F47",
"C  c #609848",
"Z  c #619949",
"A  c #629A4A",
"S  c #639A4B",
"D  c #649C4C",
"F  c #659D4D",
"G  c #659E4D",
"H  c #669D4E",
"J  c #679F4F",
"K  c #6C9F4D",
"L  c #709D48",
"P  c #61A144",
"I  c #61A046",
"U  c #60A146",
"Y  c #61A146",
"T  c #61A047",
"R  c #62A047",
"E  c #62A346",
"W  c #64A046",
"Q  c #64A846",
"!  c #65AA47",
"~  c #66AD47",
"^  c #63A048",
"/  c #64A04A",
"(  c #64A14A",
")  c #65A04B",
"_  c #66A04D",
"`  c #69AC4C",
"'  c #6AB847",
"]  c #68B348",
"[  c #6BBB48",
"{  c #68A050",
"}  c #69A050",
"|  c #6DC048",
" . c #6FC649",
".. c #6FC44A",
"X. c #70C649",
"o. c #70C749",
"O. c #71CA4A",
"+. c #72CB4A",
"@. c #72CC4A",
"#. c #73CC4A",
"$. c #72CD4A",
"%. c #73CD4A",
"&. c #72CC4B",
"*. c #73CC4B",
"=. c #72CD4B",
"-. c #73CD4B",
";. c #998932",
":. c #B5812E",
">. c #CC8439",
",. c #E3833A",
"<. c #ED803A",
"1. c #ED813A",
"2. c #B59950",
"3. c #D79554",
"4. c #EE8540",
"5. c #EE8946",
"6. c #EF8A47",
"7. c #EF8B48",
"8. c #F08947",
"9. c #F08A47",
"0. c #F08B49",
"q. c #F08B4A",
"w. c #F08C4A",
"e. c #F08E4D",
"r. c #F18F4F",
"t. c #F08F50",
"y. c #F19051",
"u. c #F19152",
"i. c #F19355",
"p. c #F19356",
"a. c #F19456",
"s. c None",
/* pixels */
"s.s.s.s.s.s.s.s.s.s.s.s.s.s.s.s.s.s.s.s.s.s.s.s.s.s.s.s.s.s.s.s.s.s.s.s.s.s.s.s.",
"s.s.s.s.s.s.s.s.s.s.s.s.s.s.s.s.s.s.s.s.s.s.s.s.s.s.s.s.s.s.s.s.s.s.s.s.s.s.s.s.",
"s.s.s.s.s.s.s.s.s.s.s.s.s.s.s.s.s.s.s.s.s.s.s.s.s.s.s.s.s.s.s.s.s.s.s.s.s.s.s.s.",
"s.s.s.s.s.s.s.s.s.s.s.s.s.s.s.s.s.s.s.s.s.s.s.s.s.{ } s.s.s.s.s.s.s.s.s.s.s.s.s.",
"s.s.s.s.s.s.s.s.s.s.s.s.s.s.s.s.s.s.s.s.s.s.s.s.s.Z S D G J J { s.s.s.s.s.s.s.s.",
"s.s.s.s.s.s.s.s.s.s.s.s.s.s.s.s.s.s.s.s.s.s.s.s.s.c c v b m C A D F H s.s.s.s.s.",
"s.s.s.s.s.s.s.s.s.s.s.s.s.s.s.s.s.s.s.s.s.s.s.s.s.c c c x z M Q ~ ! R s.s.s.s.s.",
"s.s.s.s.s.s.s.s.s.s.s.s.s.s.s.s.s.s.s.s.s.s.s.s.s.x c n N P ' O.+.O. .s.s.s.s.s.",
"s.s.s.s.s.s.s.s.s.s.s.s.s.s.s.s.s.s.s.s.s.s.s.s.s.s.s.| X.o.O.=.-.-.$.@.s.s.s.s.",
"s.s.s.s.s.s.s.s.s.s.s.s.s.s.s.s.s.s.s.s.s.s.s.s.s.s.@.%.-.-.%.*.-.-.@.@.s.s.s.s.",
"s.s.s.s.s.s.s.s.s.s.s.s.s.s.s.s.s.s.s.s.s.s.s.s.s.` ..%.&.-.-.-.-.-.-.@.s.s.s.s.",
"s.s.s.s.s.s.s.s.s.s.s.s.s.s.s.s.s.s.s.s.s.s.s.s.s.( ] O.=.-.-.-.-.-.-.@.s.s.s.s.",
"s.s.s.s.s.s.s.s.s.s.s.s.s.s.s.s.s.s.s.s.s.s.s.s.) T E [ $.@.-.-.-.-.-.&.&.s.s.s.",
"s.s.s.s.s.s.s.s.s.s.s.s.s.s.s.s.s.s.s.s.s.s.s._ ^ Y I s.s.@.@.-.-.-.-.#.#.s.s.s.",
"s.s.s.s.s.s.s.s.s.s.s.s.i.e.q.0.0.w.r.a.s.s.s./ I I I s.s.s.@.$.-.-.-.#.s.s.s.s.",
"s.s.s.s.s.s.s.s.s.s.p.7.k i 4 3 3 7 p k 9.3.K T I I s.s.s.s.s.@.-.-.@.@.s.s.s.s.",
"s.s.s.s.s.s.s.s.s.y.1.t + o + + + O O + u >.L U I W s.s.s.s.s.@.@.*.@.@.s.s.s.s.",
"s.s.s.s.s.s.s.s.r.h , + + = 2 2 2 > + + & X ;.B V 2.s.s.s.s.s.s.@.@.@.s.s.s.s.s.",
"s.s.s.s.s.s.s.t.j , + + > 0 q q q 0 > + + & .   :.,.8.u.s.s.s.s.s.@.@.s.s.s.s.s.",
"s.s.s.s.s.s.s.l < + + = 0 w w r r e 0 = + + & + $ ; 7 g 6.s.s.s.s.s.s.s.s.s.s.s.",
"s.s.s.s.s.s.4.9 + = + > q r r r r q q 2 + + = & & & + + p 5.s.s.s.s.s.s.s.s.s.s.",
"s.s.s.s.s.s.d $ + = + 1 q r r r r q e 5 + + = = = = = + @ f s.s.s.s.s.s.s.s.s.s.",
"s.s.s.s.s.s.8 + = = + > q r r r r r q 2 + + = = = = = = + 7 <.s.s.s.s.s.s.s.s.s.",
"s.s.s.s.s.s $ + = = + = 6 q r r r e 0 = + = = = = = = = + $ a s.s.s.s.s.s.s.s.s.",
"s.s.s.s.s.y $ & = = + + : 6 q q q 0 > + = = = = = = = = = + 4 s.s.s.s.s.s.s.s.s.",
"s.s.s.s.s.- + = = = = + + = > 2 > = + + = = = = = = = = = + : s.s.s.s.s.s.s.s.s.",
"s.s.s.s.s.+ + = = = = = + + + + + + + = = = = = = = = = = + $ s.s.s.s.s.s.s.s.s.",
"s.s.s.s.s.= = = = = = = = = = = = = = = = = = = = = = = = $ + s.s.s.s.s.s.s.s.s.",
"s.s.s.s.s.+ + = = = = = = = = = = = = = = = = = = = = = = $ + s.s.s.s.s.s.s.s.s.",
"s.s.s.s.s.+ + = = = = = = = = = = = = = = = = = = = = = = # + s.s.s.s.s.s.s.s.s.",
"s.s.s.s.s.s.+ = = = = = = = = = = = = = = = = = = = = = = # + s.s.s.s.s.s.s.s.s.",
"s.s.s.s.s.s.+ + = = = = = = = = = = = = = = = = = = = = * + s.s.s.s.s.s.s.s.s.s.",
"s.s.s.s.s.s.+ + = = = = = = = = = = = = = = = = = = = = + + s.s.s.s.s.s.s.s.s.s.",
"s.s.s.s.s.s.s.+ $ = = = = = = = = = = = = = = = = = = = + + s.s.s.s.s.s.s.s.s.s.",
"s.s.s.s.s.s.s.+ + $ = = = = = = = = = = = = = = = = = + + s.s.s.s.s.s.s.s.s.s.s.",
"s.s.s.s.s.s.s.s.+ + = = = = = = = = = = = = = = = = + + s.s.s.s.s.s.s.s.s.s.s.s.",
"s.s.s.s.s.s.s.s.s.+ + # = = = = = = = = = = = = + + + s.s.s.s.s.s.s.s.s.s.s.s.s.",
"s.s.s.s.s.s.s.s.s.s.+ + # = = = = = = = = = $ + + + s.s.s.s.s.s.s.s.s.s.s.s.s.s.",
"s.s.s.s.s.s.s.s.s.s.s.s.+ + + + = = = = + + + + O s.s.s.s.s.s.s.s.s.s.s.s.s.s.s.",
"s.s.s.s.s.s.s.s.s.s.s.s.s.s.+ + = = = = + + % s.s.s.s.s.s.s.s.s.s.s.s.s.s.s.s.s."
};
