/* XPM */
static char *result[] = {
/* columns rows colors chars-per-pixel */
"66 92 104 2 ",
"   c #B77B8E",
".  c #BA7E91",
"X  c #BB8395",
"o  c #BE8194",
"O  c #C28498",
"+  c #C6889B",
"@  c #C08B9C",
"#  c #C98B9F",
"$  c #CD8EA2",
"%  c #C493A3",
"&  c #C99CAA",
"*  c #D191A6",
"=  c #D595A9",
"-  c #DC9BB0",
";  c #E09EB3",
":  c #F09BB6",
">  c #F19BB6",
",  c #F09CB6",
"<  c #F09CB7",
"1  c #F19CB7",
"2  c #F19DB7",
"3  c #F19DB8",
"4  c #F19EB8",
"5  c #F19FB9",
"6  c #D6B4BF",
"7  c #E4A2B7",
"8  c #E7A5BA",
"9  c #EBA8BE",
"0  c #F1A0BA",
"q  c #F1A1BA",
"w  c #F1A2BB",
"e  c #F1A2BC",
"r  c #F1A3BC",
"t  c #F1A4BC",
"y  c #F1A4BD",
"u  c #F1A5BD",
"i  c #F2A5BD",
"p  c #F2A6BE",
"a  c #DBBDC6",
"s  c #EFABC1",
"d  c #F2A8C0",
"f  c #F3AEC4",
"g  c #F3AFC5",
"h  c #F3B0C5",
"j  c #F3B1C6",
"k  c #F3B3C7",
"l  c #F4B1C6",
"z  c #F3B3C8",
"x  c #F4B2C8",
"c  c #F3B4C8",
"v  c #F4B4C8",
"b  c #F4B5C8",
"n  c #F4B4C9",
"m  c #F4B6CA",
"M  c #F4B7CA",
"N  c #F5B7CB",
"B  c #F4B9CB",
"V  c #F4B9CC",
"C  c #F5BACC",
"Z  c #F5BACD",
"A  c #F6BBCD",
"S  c #F5BCCF",
"D  c #F6BCCE",
"F  c #F5BECF",
"G  c #F6BED0",
"H  c #F6BFD0",
"J  c #DFC5CD",
"K  c #E4CDD4",
"L  c #F6C0D1",
"P  c #F6C1D2",
"I  c #F6C2D2",
"U  c #F6C3D3",
"Y  c #F7C5D4",
"T  c #F6C7D5",
"R  c #F6C8D7",
"E  c #F7C9D7",
"W  c #F7CAD8",
"Q  c #F7CBD8",
"!  c #F7CDDA",
"~  c #F8CDDB",
"^  c #E8D5DB",
"/  c #FAD1DD",
"(  c #F8D2DE",
")  c #F8D3DF",
"_  c #EDDEE2",
"`  c #F9D7E2",
"'  c #F9D9E4",
"]  c #F9DCE5",
"[  c #FAE0E8",
"{  c #FAE1E9",
"}  c #FBE5EB",
"|  c #FBE6EC",
" . c #FBE6ED",
".. c #FCEBF0",
"X. c #FCECF1",
"o. c #FCF0F4",
"O. c #FDF2F5",
"+. c #FDF2F6",
"@. c #FAF6F7",
"#. c #FDF5F7",
"$. c #FEF8FA",
"%. c #FEFAFB",
"&. c white",
"*. c None",
/* pixels */
"*.*.*.*.*.*.*.*.*.*.*.*.*.*.*.*.*.*.*.*.*.*.*.*.*.*.*.*.&.&.&.&.&.&.&.&.&.*.*.*.*.*.*.*.*.*.*.*.*.*.*.*.*.*.*.*.*.*.*.*.*.*.*.*.*.*.",
"*.*.*.*.*.*.*.*.*.*.*.*.*.*.*.*.*.*.*.*.*.*.*.&.&.&.&.&.&.&.&.&.&.&.&.&.&.&.&.&.&.&.&.*.*.*.*.*.*.*.*.*.*.*.*.*.*.*.*.*.*.*.*.*.*.*.",
"*.*.*.*.*.*.*.*.*.*.*.*.*.*.*.*.*.*.*.*.&.&.&.&.&.&.&.&.&.&.&.&.&.&.&.&.&.&.&.&.&.&.&.&.&.*.*.*.*.*.*.*.*.*.*.*.*.*.*.*.*.*.*.*.*.*.",
"*.*.*.*.*.*.*.*.*.*.*.*.*.*.*.*.*.*.&.&.&.&.&.&.&.&.&.&.&.&.&.&.&.&.&.&.&.&.&.&.&.&.&.&.&.&.&.*.*.*.*.*.*.*.*.*.*.*.*.*.*.*.*.*.*.*.",
"*.*.*.*.*.*.*.*.*.*.*.*.*.*.*.*.&.&.&.&.&.&.&.&.&.&.&.&.&.&.&.&.&.&.&.&.&.&.&.&.&.&.&.&.&.&.&.&.&.*.*.*.*.*.*.*.*.*.*.*.*.*.*.*.*.*.",
"*.*.*.*.*.*.*.*.*.*.*.*.*.*.&.&.&.&.&.&.&.&.&.&.&.&.&.&.*.*.*.*.*.*.*.*.*.&.&.&.&.&.&.&.&.&.&.&.&.&.&.*.*.*.*.*.*.*.*.*.*.*.*.*.*.*.",
"*.*.*.*.*.*.*.*.*.*.*.*.*.&.&.&.&.&.&.&.&.&.&.&.*.*.*.*.*.*.*.*.*.*.*.*.*.*.*.*.*.&.&.&.&.&.&.&.&.&.&.&.*.*.*.*.*.*.*.*.*.*.*.*.*.*.",
"*.*.*.*.*.*.*.*.*.*.*.*.&.&.&.&.&.&.&.&.&.*.*.*.*.*.*.*.*.*.*.*.*.*.*.*.*.*.*.*.*.*.*.*.&.&.&.&.&.&.&.&.&.&.*.*.*.*.*.*.*.*.*.*.*.*.",
"*.*.*.*.*.*.*.*.*.*.&.&.&.&.&.&.&.&.&.*.*.*.*.*.*.*.*.*.*.*.*.*.*.*.*.*.*.*.*.*.*.*.*.*.*.*.&.&.&.&.&.&.&.&.&.*.*.*.*.*.*.*.*.*.*.*.",
"*.*.*.*.*.*.*.*.*.*.&.&.&.&.&.&.&.&.*.*.*.*.*.*.*.*.*.*.*.*.*.*.*.*.*.*.*.*.*.*.*.*.*.*.*.*.*.*.&.&.&.&.&.&.&.&.*.*.*.*.*.*.*.*.*.*.",
"*.*.*.*.*.*.*.*.*.&.&.&.&.&.&.&.*.*.*.*.*.*.*.*.*.*.*.*.*.*.*.*.*.*.*.*.*.*.*.*.*.*.*.*.*.*.*.*.*.&.&.&.&.&.&.&.&.*.*.*.*.*.*.*.*.*.",
"*.*.*.*.*.*.*.*.&.&.&.&.&.&.&.*.*.*.*.*.*.*.*.*.*.*.*.*.*.*.*.*.*.*.*.*.*.*.*.*.*.*.*.*.*.*.*.*.*.*.*.&.&.&.&.&.&.&.*.*.*.*.*.*.*.*.",
"*.*.*.*.*.*.*.&.&.&.&.&.&.&.*.*.*.*.*.*.*.*.*.*.*.*.*.*.*.*.*.*.*.*.*.*.*.*.*.*.*.*.*.*.*.*.*.*.*.*.*.*.&.&.&.&.&.&.*.*.*.*.*.*.*.*.",
"*.*.*.*.*.*.&.&.&.&.&.&.&.*.*.*.*.*.*.*.*.*.*.*.*.*.*.*.*.*.*.*.*.*.*.*.*.*.*.*.*.*.*.*.*.*.*.*.*.*.*.*.*.&.&.&.&.&.&.*.*.*.*.*.*.*.",
"*.*.*.*.*.&.&.&.&.&.&.&.*.*.*.*.*.*.*.*.*.*.*.*.*.*.*.*.*.*.*.*.*.*.*.*.*.*.*.*.*.*.*.*.*.*.*.*.*.*.*.*.*.*.&.&.&.&.&.&.*.*.*.*.*.*.",
"*.*.*.*.*.&.&.&.&.&.&.*.*.*.*.*.*.*.*.*.*.*.*.*.*.*.*.*.*.*.*.*.*.*.*.*.*.*.*.*.*.*.*.*.*.*.*.*.*.*.*.*.*.*.&.&.&.&.&.&.*.*.*.*.*.*.",
"*.*.*.*.&.&.&.&.&.&.*.*.*.*.*.*.*.*.*.*.*.*.*.*.*.*.*.*.*.*.*.*.*.*.*.*.*.*.*.*.*.*.*.*.*.*.*.*.*.*.*.*.*.*.*.&.&.&.&.&.&.*.*.*.*.*.",
"*.*.*.*.&.&.&.&.&.&.*.*.*.*.*.*.*.*.*.*.*.*.*.*.*.*.*.*.*.*.*.*.*.*.*.*.*.*.*.*.*.*.*.*.*.*.*.*.*.*.*.*.*.*.*.*.&.&.&.&.&.&.*.*.*.*.",
"*.*.*.&.&.&.&.&.&.*.*.*.*.*.*.*.*.*.*.*.*.*.*.*.*.*.*.*.S v v v v v v F T / *.*.*.*.*.*.*.*.*.*.*.*.*.*.*.*.*.*.&.&.&.&.&.&.*.*.*.*.",
"*.*.*.&.&.&.&.&.*.*.*.*.*.*.*.*.*.*.*.*.*.*.*.*.H x g g g g g g g g h C C C C G E *.*.*.*.*.*.*.*.*.*.*.*.*.*.*.*.&.&.&.&.&.&.*.*.*.",
"*.*.&.&.&.&.&.&.*.*.*.*.*.*.*.*.*.*.*.*.*.*.S h g g g g g g g g g g k C C C C C C C T *.*.*.*.*.*.*.*.*.*.*.*.*.*.&.&.&.&.&.&.*.*.*.",
"*.*.&.&.&.&.&.*.*.*.*.*.*.*.*.*.*.*.*.*.*.l g g g g g g g g g g g g v C C C C C C C C D / *.*.*.*.*.*.*.*.*.*.*.*.*.&.&.&.&.&.*.*.*.",
"*.&.&.&.&.&.&.*.*.*.*.*.*.*.*.*.*.*.*.*.g g g g g g g g g g g g g g v C C C C C C C C C C Y *.*.*.*.*.*.*.*.*.*.*.*.&.&.&.&.&.&.*.*.",
"*.&.&.&.&.&.&.*.*.*.*.*.*.*.*.*.*.*.N g g g g g g g g g g g g g g g v C C C C C C C C C C C G *.*.*.*.*.*.*.*.*.*.*.*.&.&.&.&.&.*.*.",
"*.&.&.&.&.&.*.*.*.*.*.*.*.*.*.*.*.S g g g g g g g g g g g g g g g g j C C C C C C C C C C C C L *.*.*.*.*.*.*.*.*.*.*.&.&.&.&.&.*.*.",
"*.&.&.&.&.&.*.*.*.*.*.*.*.*.*.*.*.g g g g g g g g g g g g g g g g g g B C C C C C C C C C C C C Y *.*.*.*.*.*.*.*.*.*.&.&.&.&.&.&.*.",
"*.&.&.&.&.&.*.*.*.*.*.*.*.*.*.*.g g g g g g g g g g g g g g g g g g g z C C C C C C C C C C C C C E *.*.*.*.*.*.*.*.*.*.&.&.&.&.&.*.",
"&.&.&.&.&.*.*.*.*.*.*.*.*.*.*.h g g g g g g g g g g g g g g g g g g g g M C C C C C C C C C C C C C *.*.*.*.*.*.*.*.*.*.&.&.&.&.&.*.",
"&.&.&.&.&.*.*.*.*.*.*.*.*.*.x g g g g g g g g g g g g g g g g g g g g V U W Q Q F C C C C C C C C C A *.*.*.*.*.*.*.*.*.&.&.&.&.&.*.",
"&.&.&.&.&.*.*.*.*.*.*.*.*.*.g g g g g g g g g g g g g g g g g g g U o.&.&.&.&.&.&.} F C C C C C C M g S *.*.*.*.*.*.*.*.&.&.&.&.&.*.",
"&.&.&.&.&.*.*.*.*.*.*.*.*.l g g g g g g g g g g g g g g g g g g ] &.&.&.&.&.&.&.&.&.%.I C C C B b g g h *.*.*.*.*.*.*.*.&.&.&.&.&.*.",
"&.&.&.&.&.*.*.*.*.*.*.*.H g g g g g g g g g g g g g g g g g g U &.&.@.J & & & & K &.&.O.V v k g g g g g S *.*.*.*.*.*.*.&.&.&.&.&.*.",
"&.&.&.&.&.*.*.*.*.*.*.*.x g g g g g g g g g g g g g g g g g g %.&.&.&             a &.&.] g g g g g g g l *.*.*.*.*.*.*.&.&.&.&.&.*.",
"&.&.&.&.&.*.*.*.*.*.*.*.g g g g g g g g g g g g g g g g g g ! &.&.a                 _ &.&.c g g g g g g g *.*.*.*.*.*.*.&.&.&.&.&.*.",
"&.&.&.&.&.*.*.*.*.*.*.H g g g g g g g g g g g g g g g g g g { &.@.                  % &.&.! g g g g g g g S *.*.*.*.*.*.&.&.&.&.&.*.",
"&.&.&.&.&.*.*.*.*.*.*.m g g g g g g g g g g g g g g g g g g ..&._                     &.&.` g g g g g g g m *.*.*.*.*.*.&.&.&.&.&.*.",
"&.&.&.&.&.*.*.*.*.*.*.x g g g g g g g g g g g g g g g g g g ..&._                     &.&.` g g g g g g g x *.*.*.*.*.*.&.&.&.&.&.*.",
"&.&.&.&.&.&.*.*.*.*.*.g g g g g g g g g g g g g g g g g g g ..&.@.                  % &.&.` g g g g g g g g *.*.*.*.*.*.&.&.&.&.&.*.",
"*.&.&.&.&.&.*.*.*.*.*.g g g g g g g g g g g g g g g g g g g ( &.&.6                 ^ &.&.F g g g g g g g g *.*.*.*.*.*.&.&.&.&.&.*.",
"*.&.&.&.&.&.*.*.*.*.*.g g g g g g g g g g g g g g g g g g g V &.&.@.&             6 &.&...g g g g g g g g g *.*.*.*.*.&.&.&.&.&.&.*.",
"*.&.&.&.&.&.*.*.*.*.*.g g g g g g g g g g g g g g g g g g g g ` &.&.&.6 X     @ K &.&.%.F g g g g g g g g g *.*.*.*.*.&.&.&.&.&.*.*.",
"*.&.&.&.&.&.*.*.*.*.*.g g g g g g g g g g g g g g g g g g g g g ` &.&.&.&.&.&.&.&.&.o.F g g g g g g g g g g *.*.*.*.*.&.&.&.&.&.*.*.",
"*.&.&.&.&.&.&.*.*.*.*.g g g g g g g g g g g g g g g g g g g g g g ! %.&.&.&.&.&.&...c g g g g g g g g g g g *.*.*.*.&.&.&.&.&.&.*.*.",
"*.*.&.&.&.&.&.*.*.*.*.g g g g g g g g g g g g g g g g g g g g g g g c ` ........! g g g g g g g g g g g g g *.*.*.*.&.&.&.&.&.&.*.*.",
"*.*.&.&.&.&.&.&.*.*.*.g g g g g g g g g g g g g g g g g g g g g g g g g g g g g g g g g g g g g g g g g g g *.*.*.*.&.&.&.&.&.*.*.*.",
"*.*.*.&.&.&.&.&.*.*.*.g g g g g g g g g g g g g g g g g g g g g g g g g g g g g g g g g g g g g g g g g g g *.*.*.&.&.&.&.&.&.*.*.*.",
"*.*.*.&.&.&.&.&.&.*.*.g g g g g g g g g g g g g g g g g g g g g g g g g g g g g g g g g g g g g g g g g g g *.*.*.&.&.&.&.&.*.*.*.*.",
"*.*.*.&.&.&.&.&.&.*.*.g g g g g g g g g g g g g g g g g g g g g g g g g g g g g g g g g g g g g g g g g g g *.*.&.&.&.&.&.&.*.*.*.*.",
"*.*.*.*.&.&.&.&.&.&.*.g g g g g g g g g g g g g g g g g g g g 7 s g g g g g g g g g g ; 7 g g g g g g g g g *.&.&.&.&.&.&.*.*.*.*.*.",
"*.*.*.*.*.&.&.&.&.&.&.c g g g g g g g g g g g g g g g g g g -   $ g g g g g g g g g 9 .   g g g g g g g g g *.&.&.&.&.&.&.*.*.*.*.*.",
"*.*.*.*.*.&.&.&.&.&.&.{ g g g g g g g g g g g g g g g g g g 7     8 g g g g g g g g #   # g g g g g g g g U &.&.&.&.&.&.*.*.*.*.*.*.",
"*.*.*.*.*.*.&.&.&.&.&.&.{ g g g g g g g g g g g g g g g g g g *   . * s g g g g 7 O   O s g g g g g g g F %.&.&.&.&.&.*.*.*.*.*.*.*.",
"*.*.*.*.*.*.*.&.&.&.&.&.&...c g g g g g g g g g g g g g g g g g * .     + + + o     O 8 g g g g g g g ! %.&.&.&.&.&.&.*.*.*.*.*.*.*.",
"*.*.*.*.*.*.*.&.&.&.&.&.&.&.o.c g g g g g g g g g g g g g g g g g 8 #           o = g g g g g g g g ! &.&.&.&.&.&.&.*.*.*.*.*.*.*.*.",
"*.*.*.*.*.*.*.*.&.&.&.&.&.&.&.o.V g g g g g g g g g g g g g g g g g g s 7 7 7 8 g g g g g g g g g ( &.&.&.&.&.&.&.*.*.*.*.*.*.*.*.*.",
"*.*.*.*.*.*.*.*.e X.&.&.&.&.&.&.%.U g g g g g g g g g g g g g g g g g g g g g g g g g g g g g V o.&.&.&.&.&.&.&.*.*.*.*.*.*.*.*.*.*.",
"*.*.*.*.*.*.> 1 1 1 ' &.&.&.&.&.&.&.{ c g g g g g g g g g g g g g g g g g g g g g g g g g g ! %.&.&.&.&.&.&.X.i *.*.*.*.*.*.*.*.*.*.",
"*.*.*.*.*.1 1 1 1 1 1 ' &.&.&.&.&.&.&.%.! c g g g g g g g g g g g g g g g g g g g g g g R o.&.&.&.&.&.&.&.X.w 1 1 *.*.*.*.*.*.*.*.*.",
"*.*.*.*.*.1 1 1 1 1 1 1 ) $.&.&.&.&.&.&.&.%.] V g g g g g g g g g g g g g g g g g c ( #.&.&.&.&.&.&.&.&.) w 1 1 1 > *.*.*.*.*.*.*.*.",
"*.*.*.*.1 1 1 1 1 1 1 1 1 f +.&.&.&.&.&.&.&.&.&...` U g g g g g g g g g g g F ( | &.&.&.&.&.&.&.&.&.$.P 1 1 1 1 1 1 *.*.*.*.*.*.*.*.",
"*.*.*.< 1 1 1 1 1 1 1 1 1 1 w ' &.&.&.&.&.&.&.&.&.&.&.&.o.................&.&.&.&.&.&.&.&.&.&.&.&.[ w 1 1 1 1 1 1 1 < *.*.*.*.*.*.*.",
"*.*.*.1 1 1 1 1 1 1 1 1 1 1 1 1 n +.&.&.&.&.&.&.&.&.&.&.&.&.&.&.&.&.&.&.&.&.&.&.&.&.&.&.&.&.&.+.Z 1 1 1 1 1 1 1 1 1 1 *.*.*.*.*.*.*.",
"*.*., 1 1 1 1 1 1 < *.1 1 1 1 1 1 1 Z X.&.&.&.&.&.&.&.&.&.&.&.&.&.&.&.&.&.&.&.&.&.&.&.&.&.+.P 1 1 1 1 1 1 1 1 1 1 1 1 < *.*.*.*.*.*.",
"*.*.1 1 1 1 1 , *.*.*.1 1 1 1 1 1 1 1 1 f ' +.&.&.&.&.&.&.&.&.&.&.&.&.&.&.&.&.&.&.&.+.' n 1 1 1 1 1 1 1 1 1 : 1 1 1 1 1 *.*.*.*.*.*.",
"*.*.1 1 1 1 1 *.*.*.*.1 1 1 1 1 1 1 1 1 1 1 1 n ~  .$.&.&.&.&.&.&.&.&.&.&.&.$. .~ n 1 1 1 1 1 1 1 1 1 1 1 1 *., 1 1 1 1 *.*.*.*.*.*.",
"*.*.1 1 1 1 : *.*.*.*.1 1 1 1 1 1 1 1 1 1 1 1 1 1 1 1 d n n n n n n n n n d 1 1 1 1 1 1 1 1 1 1 1 1 1 1 1 1 *.> 1 1 1 1 < *.*.*.*.*.",
"*.< 1 1 1 1 *.*.*.*.*.1 1 1 1 1 1 1 1 1 1 1 1 1 1 1 1 1 1 1 1 1 1 1 1 1 1 1 1 1 1 1 1 1 1 1 1 1 1 1 1 1 1 1 *.*.1 1 1 1 < *.*.*.*.*.",
"*.< 1 1 1 1 *.*.*.*.*.1 1 1 1 1 1 1 1 1 1 1 1 1 1 1 1 1 1 1 1 1 1 1 1 1 1 1 1 1 1 1 1 1 1 1 1 1 1 1 1 1 1 1 *.*.1 1 1 1 1 *.*.*.*.*.",
"*.< 1 1 1 1 *.*.*.*.*.1 1 1 1 1 1 1 1 1 1 1 1 1 1 1 1 1 1 1 1 1 1 1 1 1 1 1 1 1 1 1 1 1 1 1 1 1 1 1 1 1 1 1 *.*.1 1 1 1 1 *.*.*.*.*.",
"*.< 1 1 1 1 *.*.*.*.*.1 1 1 1 1 1 1 1 1 1 1 1 1 1 1 1 1 1 1 1 1 1 1 1 1 1 1 1 1 1 1 1 1 1 1 1 1 1 1 1 1 1 1 *.*.1 1 1 1 1 *.*.*.*.*.",
"*.< 1 1 1 1 *.*.*.*.*.1 1 1 1 1 1 1 1 1 1 1 1 1 1 4 4 4 1 1 1 1 1 1 1 1 1 1 2 4 q q 2 1 1 1 1 1 1 1 1 1 1 1 *.*.1 1 1 1 1 *.*.*.*.*.",
"*.*.1 1 1 : *.*.*.*.*.< 1 1 1 1 1 1 1 1 1 1 1 2 u p p p q 1 1 1 1 1 1 1 1 q p p p p p 4 1 1 1 1 1 1 1 1 1 < *.*.> 1 1 1 > *.*.*.*.*.",
"*.*.*.*.*.*.*.*.*.*.*., 1 1 1 1 1 1 1 1 1 1 1 q p p p p p 2 1 1 1 1 1 1 4 p p p p p p y 1 1 1 1 1 1 1 1 1 , *.*.*.*.*.*.*.*.*.*.*.*.",
"*.*.*.*.*.*.*.*.*.*.*.*.1 1 1 1 1 1 1 1 1 1 1 q p p p p p 4 1 1 1 1 1 1 q p p p p p p p 3 1 1 1 1 1 1 1 1 *.*.*.*.*.*.*.*.*.*.*.*.*.",
"*.*.*.*.*.*.*.*.*.*.*.*.: 1 1 1 1 1 1 1 1 1 1 0 p p p p u 1 1 1 1 1 1 1 r p p p p p p p 4 1 1 1 1 1 1 1 < *.*.*.*.*.*.*.*.*.*.*.*.*.",
"*.*.*.*.*.*.*.*.*.*.*.*.1 1 1 1 1 1 1 1 1 1 1 1 q p p u 5 1 1 4 3 1 1 1 5 p p p p p p p 3 1 1 1 1 1 1 1 *.*.*.*.*.*.*.*.*.*.*.*.*.*.",
"*.*.*.*.*.*.*.*.*.*.*.*.< 1 1 1 1 1 1 1 1 1 1 1 1 1 1 1 1 1 5 p p u 1 1 1 r p p p p p w 1 1 1 1 1 1 1 *.*.*.*.*.*.*.*.*.*.*.*.*.*.*.",
"*.*.*.*.*.*.*.*.*.*.*.*.1 1 1 1 1 1 1 1 1 1 1 1 1 1 1 1 1 1 t p p p 2 1 1 1 r p p u q 1 1 1 1 1 1 1 *.*.*.*.*.*.*.*.*.*.*.*.*.*.*.*.",
"*.*.*.*.*.*.*.*.*.*.*.*.1 1 1 1 1 1 1 1 1 1 1 1 1 1 1 1 1 1 y p p p 3 1 1 1 1 1 1 1 1 1 1 1 1 1 1 1 *.*.*.*.*.*.*.*.*.*.*.*.*.*.*.*.",
"*.*.*.*.*.*.*.*.*.*.*.*.1 1 1 1 1 1 1 1 1 1 1 1 1 1 1 1 1 1 3 q q 5 1 1 1 1 1 1 1 1 1 1 1 1 1 1 1 1 *.*.*.*.*.*.*.*.*.*.*.*.*.*.*.*.",
"*.*.*.*.*.*.*.*.*.*.*.> 1 1 1 1 1 1 1 1 1 1 1 1 1 1 1 1 1 1 1 1 1 1 1 1 1 1 1 1 1 1 1 1 1 1 1 1 1 1 *.*.*.*.*.*.*.*.*.*.*.*.*.*.*.*.",
"*.*.*.*.*.*.*.*.*.*.*.< 1 1 1 1 1 1 1 1 1 < 1 , 1 1 1 1 1 1 1 1 1 1 1 1 1 1 1 1 1 1 1 1 1 1 1 1 1 1 *.*.*.*.*.*.*.*.*.*.*.*.*.*.*.*.",
"*.*.*.*.*.*.*.*.*.*.*.1 1 1 1 1 1 1 1 1 1 *.*.*.*.*., < 1 1 1 1 1 1 1 1 1 : , 1 1 1 1 1 1 1 1 1 1 , *.*.*.*.*.*.*.*.*.*.*.*.*.*.*.*.",
"*.*.*.*.*.*.*.*.*.*.*.1 1 1 1 1 1 1 1 1 , *.*.*.*.*.*.*.*.*.*.*.*.*.*.*.*.*.*.*.1 1 1 1 1 1 1 1 1 < *.*.*.*.*.*.*.*.*.*.*.*.*.*.*.*.",
"*.*.*.*.*.*.*.*.*.*.*.1 1 1 1 1 1 1 1 1 1 *.*.*.*.*.*.*.*.*.*.*.*.*.*.*.*.*.*.*.1 1 1 1 1 1 1 1 1 < *.*.*.*.*.*.*.*.*.*.*.*.*.*.*.*.",
"*.*.*.*.*.*.*.*.*.*.*.1 1 1 1 1 1 1 1 1 *.*.*.*.*.*.*.*.*.*.*.*.*.*.*.*.*.*.*.*.1 1 1 1 1 1 1 1 1 < *.*.*.*.*.*.*.*.*.*.*.*.*.*.*.*.",
"*.*.*.*.*.*.*.*.*.*.< 1 1 1 1 1 1 1 1 : *.*.*.*.*.*.*.*.*.*.*.*.*.*.*.*.*.*.*.*.: 1 1 1 1 1 1 1 1 1 *.*.*.*.*.*.*.*.*.*.*.*.*.*.*.*.",
"*.*.*.*.*.*.*.*.*.*., 1 1 1 1 1 1 1 1 *.*.*.*.*.*.*.*.*.*.*.*.*.*.*.*.*.*.*.*.*.< 1 1 1 1 1 1 1 1 *.*.*.*.*.*.*.*.*.*.*.*.*.*.*.*.*.",
"*.*.*.*.*.*.*.*.*.*.1 1 1 1 1 1 1 1 1 *.*.*.*.*.*.*.*.*.*.*.*.*.*.*.*.*.*.*.*.*.1 1 1 1 1 1 1 1 1 *.*.*.*.*.*.*.*.*.*.*.*.*.*.*.*.*.",
"*.*.*.*.*.*.*.*.*.*.1 1 1 1 1 1 1 1 1 *.*.*.*.*.*.*.*.*.*.*.*.*.*.*.*.*.*.*.*.*.*.1 1 1 1 1 1 1 1 *.*.*.*.*.*.*.*.*.*.*.*.*.*.*.*.*.",
"*.*.*.*.*.*.*.*.*.*.1 1 1 1 1 1 1 1 *.*.*.*.*.*.*.*.*.*.*.*.*.*.*.*.*.*.*.*.*.*.*.1 1 1 1 1 1 1 1 *.*.*.*.*.*.*.*.*.*.*.*.*.*.*.*.*.",
"*.*.*.*.*.*.*.*.*.*.< < < < < < < , *.*.*.*.*.*.*.*.*.*.*.*.*.*.*.*.*.*.*.*.*.*.*.< < < < < < < < *.*.*.*.*.*.*.*.*.*.*.*.*.*.*.*.*."
};
