/* XPM */
static char *result[] = {
/* columns rows colors chars-per-pixel */
"100 100 72 1 ",
"  c #C99869",
". c #C99868",
"X c #C99768",
"o c #C89768",
"O c #C89767",
"+ c #C89667",
"@ c #C79666",
"# c #C89666",
"$ c #C89869",
"% c #C89769",
"& c #C79564",
"* c #C69363",
"= c #C69463",
"- c #C79565",
"; c #C79463",
": c #C79667",
"> c #C69464",
", c #C69261",
"< c #C5905F",
"1 c #C59160",
"2 c #C69362",
"3 c #C79465",
"4 c #C79464",
"5 c #C5915F",
"6 c #C89868",
"7 c #C59261",
"8 c #C5905E",
"9 c #C48F5C",
"0 c #C58F5D",
"q c #C6915F",
"w c #C99769",
"e c #C4905E",
"r c #C48E5B",
"t c #C58F5C",
"y c #C38E5B",
"u c #C48E5C",
"i c #C48D5A",
"p c #C58E5B",
"a c #C38D5B",
"s c #C59260",
"d c #C79566",
"f c #C79665",
"g c #C5905D",
"h c #C79363",
"j c #C48F5D",
"k c #C79362",
"l c #C69160",
"z c #C48E5A",
"x c #C38D5A",
"c c #C58F5B",
"v c #C5915E",
"b c #C4905D",
"n c #C59361",
"m c #C59362",
"M c #C48F5B",
"N c #C69260",
"B c #C89668",
"V c #C69462",
"C c #C89566",
"Z c #C79768",
"A c #C79364",
"S c #C69262",
"D c #C48D5B",
"F c #C69465",
"G c #C59262",
"H c #C79767",
"J c #C69361",
"K c #C48E5D",
"L c #C69565",
"P c #C58F5E",
"I c #C79567",
"U c white",
/* pixels */
"                                                                                                    ",
"                                                                                                    ",
"                                                                                                    ",
"                                                                                                    ",
"                                                                                                    ",
"                                                                                                    ",
"                                                                                                    ",
"                                                                                                    ",
"                                                                                                    ",
"                                                                                                    ",
"                                                                                                    ",
"                                                                                                    ",
"                                                                                                    ",
"           ....    XXXX                                                      XXXX    ....           ",
"           ....    XXXX                                                      XXXX    ....           ",
"           ..ooooooooXX                        oooooo                        XXoooooooo..           ",
"           ..oO+@@+ooXX                     .  o+##+o  .                     XXoo+@@+Oo..           ",
"           $%o@&*=-+oo$XXXX                  oo+-;;-+oo                  XXXX$oo+-=*&@o%$           ",
"           oo:>,<123+ooXXXX                  o@4,55,4@o                  XXXXoo+321<,>:oo           ",
"         6oo:47890q2-+oooXX            XXXwoo+4,8998,4+oowXXX            XXooo+-2q09874:oo6         ",
"         oo@>7e9rrt<23+ooXX            XXXXo:4789rr9874:oXXXX            XXoo+32<trr9e7>@oo         ",
"       $oo@4789yrrrtq2-+oo$            XXoo+4,8uriiru8,4+ooXX            $oo+-2qtrrry9874@oo$       ",
"       oo:>7e9rrrrrrt<23+oo             Xo@4789rriirr9874@oX             oo+32<trrrrrr9e7>:oo       ",
"     6oo:4789yrrrrrrrtq2-+oo$XXXX    oooo+4,8urirppriru8,4+oooo    XXXX$oo+-2qtrrrrrrry9874@ooo     ",
"     oo@>7e9rrrrrrrrrrt<23+ooXXXX    ooO@4789rarrpprrar9874@Ooo    XXXXoo+32<trrrrrrrrrr9es=doo     ",
"   ooOf;789yrrrttttrrrrtq2-+oooXX  ooo+d>,8urirrrttrrriru8,>d+ooo  XXooo+-2qtrrrrttttrrry9g1hd+oo   ",
"   oO-25e9rrrrrttttrrrrrt<23+ooXX  oo+d*10uryrrrrttrrrryru01*d+oo  XXoo+32<trrrrrttttrrrrrrj52doo   ",
" %o+-k50urrrrttttttttrrrrtq2-+oo$ooo+-*l0rrrrrrttttttrrrrrr0l*-+ooo$oo+-2qtrrrrttttttttrrrrr05hd+oo ",
" ood259rrrrrrttttttttrrrrrt<23+oooo+d*10urrrrrrttttttrrrrrru01*d+oooo+32<trrrrrttttttttrrrrrr952doo ",
"o+dh5trirppttttttttttttrrrrtq2-+oo+-*l0rrrrttttttttttttttrrrr0l*-+oo+-2qtrrrrttttttttttttttrrrt5hd+o",
"+-k5jrrrrppttttttttttttrrrrrt<23++d*10urzrrttttttttttttttrrzru01*d++32<trrrrrttttttttttttttrrrrj5k-+",
"425trxrrrttttttttttttttttrrrrtq2--*l0rrrrccttttttttttttttccrrrr0l*--2qtrrrrttttttttttttttttrrrxrt524",
"sv9rrrrrrttttttttttttttttrrrrrt8,,5gurrrrccttttttttttttttccrrrrug5,,8trrrrrttttttttttttttttrrrrrr9vs",
"b9rrrrrttttttttttttttttttttrrrr9g899rrrttttttttttttttttttttttrrr998g9rrrrttttttttttttttttttttrrrrr9b",
"rrrrrrrttttttttttttttttttttrrrrrrrrrrrrttttttttttttttttttttttrrrrrrrrrrrrttttttttttttttttttttrrrrrrr",
"rrrttttttttttrrrrrrrrttttttttrrriiirrttttttttpprrrrrrppttttttttrriiirrrttttttttrrrrrrrrttttttttttrrr",
"rrrttttttttttrrrrrrrrttttttttrrrriirrttttttttpprrrrrrppttttttttrriirrrrttttttttrrrrrrrrttttttttttrrr",
"tttttttttttrrrrrrrrrrrrttttttttppppppttttttrrrrrrrrrrrrrrttttttppppppttttttttrrrrrrrrrrrrttttttttttt",
"tttttttttttrrru9jj9rrrrttttttttppppppttttttrrrru9jj9urrrrttttttppppppttttttttrrrr9jj9urrrttttttttttt",
"tttttttttrrrru0<s189rrrrrttttttttttttttttrrrry9j<11<j9yrrrrttttttttttttttttrrrrr981s<0urrrrttttttttt",
"tttttttttrrrr0l*->,59yrrrttttttttttttttttrrrr9j524425j9rrrrttttttttttttttttrrry95,>-*l0rrrrttttttttt",
"tttttttrrrru01*d+:>ne9rrrrrttttttttttttrrrryub52-++-25buyrrrrttttttttttttrrrrr9en>:+d*10urrrrttttttt",
"tttttttrrrr0l*-+oo:-m59yrrrttttttttttttrrrirj52-OooO-25jrirrrttttttttttttrrry95m-:oo+-*l0rrrrttttttt",
"tttttrrrru01*d+oooo:>me9rrrrrttttttttrrrryr952-+oXXo+-259ryrrrrttttttttrrrrr9em>:oooo+d*10urrrrttttt",
"tttttrrrr0l*-+ooo6oo:-m59yrrrttttttttrrrxr952-+ooXXoo+-259rxrrrttttttttrrry95m-:oo6ooo+-*l0rrrrttttt",
"tttrrrru01*d+oo....oo:>me9rrrrrttttrrrrrrj52-OoXXXXXXoO-25jrrrrrrttttrrrrr9em>:oo....oo+d*10urrrrttt",
"tttrrrMgl*-+oo%....%oo:-m59yrrrttttrrrru012-+ooXXXXXXoo+-210urrrrttttrrry95m-:oo%....%oo+-*lgMrrrttt",
"trrrr9gs*d+oo        oo:>me9rrrrrrrrrr98l*-+oXX      XXo+-*l89rrrrrrrrrr9em>:oo        oo+d*sg9rrrrt",
"trrrrg,>d+ooo        %oo:-m59yrrrrrrr9gNhd+ooXX      XXoo+dhNg9rrrrrrry95m-:oo%        ooo+d>,grrrrt",
"rrrugN4@Ooo            oo:>me9rrrrrr98N*dooXXXX      XXXXood*N89rrrrrr9em>:oo            ooO@4Ngurrr",
"rrrg,4+oooo            %oo:-m59yrrr98,;dOooXXXX      XXXXooOd;,89rrry95m-:oo%            oooo+4,grrr",
"rugs>@o                  oo:>me9rr98,*doo                  ood*,89rr9em>:oo                  o@>sgur",
"9g,>d+o                  %oo:-m599gN;dOoo                  ooOd;Ng995m-:oo%                  o+d>,g9",
"vN>@+oo                    oo:>258N*dBoXX                  XXoBd*N852>:oo                    oo+@>Nv",
"h4d+ooo                    %oo:-V24d+ooXX                  XXoo+d42V-:oo%                    ooo+d4h",
"C++oo                        oo+@-+BoXXXX                  XXXXoB+-@+oo                        oo++C",
"ooooo                        oooZZoooXXXX                  XXXXoooZZooo                        ooooo",
"             %%%ooo            $$$$        XXXXooooooXXXX        $$$$            ooo%%%             ",
"             %%oooo            $$$$        XXXXooooooXXXX        $$$$            oooo%%             ",
"         XXX oB:d@Ooo                      XXooo+@@+oooXX                      ooO@d:Bo XXX         ",
"         XXXXo@3*=-Oo                      XXoo+3AA3+ooXX                      oO-=*3@oXXXX         ",
"         XXoo+4S112-+o%                    $oo+-SllS-+oo$                    %o+-211S4+ooXX         ",
"         wXo@4789j52doo                    oo+3S<00<S3+oo                    ood25j9874@oXw         ",
"         oo+4,8urrt5hd+oo            XXXX$oo+-2qtrrtq2-+oo$XXXX            oo+dh5trru8,4+oo         ",
"      .  o:4789rxrrj52doo            XXXXoo+32<trrrrt<23+ooXXXX            ood25jrrxr9874:o  .      ",
"       oo+4,8urirrxrt5hd+oo          XXooo+-2qtrrrrrrtq2-+oooXX          oo+dh5trxrriru8,4+oo       ",
"       o@4789rarrrrrr952doo          XXoo+32<trrrrrrrrt<23+ooXX          ood259rrrrrrar9874:o       ",
"   oooo+4,8urirrrrrrrr05hd+oo    XXXX$oo:3SqtrrrrttrrrrtqS3:oo$XXXX    oo+dh50rrrrrrrriru8,4#oooo   ",
"   ooO@4789rDrrrrrrrrrr952doo    XXXXoo:>,8trrrrrttrrrrrt8,>:ooXXXX    ood259rrrrrrrrrrDr987;d+oo   ",
" ooo+d>,8urirppttttttrrrt5hd+oo  XXooo:4,89rrrrttttttrrrr98,4:oooXX  oo+dh5trrrttttttppriru8l*-+ooo ",
" oo+d*10uryrrppttttttrrrrj52-Oo  XXoo@>,89rrrrrttttttrrrrr98,>@ooXX  oO-25jrrrrttttttpprrrru01*d+oo ",
"oo+-*l0rrirrrttttttttrrrxrt5k-+o%$%o@4,89rrrrttttttttttrrrr98,4@o%$%o+-k5trxrrrttttttttpprrrr0l*-+oo",
"o+d*10urirrrrttttttttrrrrrr952doo%o:>,89rrrrrttttttttttrrrrr98,>:o%ood259rrrrrrttttttttpprrrru01*d+o",
":d*l0rrzrppttttttttttttrrrxrt5hd+o:4,89rrrrttttttttttttttrrrr98,4:o+dh5trxrrrttttttttttttttrrrr0l*d:",
"F*10urzrrppttttttttttttrrrrrrj5k-d>,89rrrrrttttttttttttttrrrrr98,>d-k5jrrrrrrttttttttttttttrrzru01*F",
"G1jrrzrccttttttttttttttttrrrxrt5S2l89rrrrttttttttttttttttttrrrr98l2S5trxrrrttttttttttttttttccrzrrj1G",
"gjurzrrccttttttttttttttttrrrrrr98809rrrrrttttttttttttttttttrrrrr90889rrrrrrttttttttttttttttccrrzrujg",
"prrrrccttttttrrrrrrppttttttrrrrruurrrrrttttttttrrrrrrttttttttrrrrruurrrrrttttttttrrrrrrttttttccrrrrp",
"rrrrrccttttttrrrrrrppttttttrrrrrrrrrrrrttttttttrrrrrrttttttttrrrrrrrrrrrrttttttttrrrrrrttttttccrrrrr",
"pppttttttttrrrrrrrrrrppttttttttrrrrrrttttttttrrrrrrrrrrttttttttrrrrrrttttttttttrrrrrrrrrrttttttttppp",
"pppttttttttrrrrruurrrppttttttttrrrrrrttttttttrrrrrrrrrrttttttttrrrrrrttttttttttrrruurrrrrttttttttppp",
"tttttttttrrrrr9088jurrrppttttttttttttttttttrrrrr0gg0rrrrrttttttttttttttttttttrrrru0809rrrrrttttttttt",
"tttttttttrrrr9812,<jrirppttttttttttttttttttrrrr0l,,l0rrrrttttttttttttttttttttrrrMgl,189rrrrttttttttt",
"tttttttrrrrr98N*-3S<9rirrppttttttttttttttrrrru052&&250urrrrttttttttttttttttrrrr9gN;4*,89rrrrrttttttt",
"tttttttrrrr9gN;d++-28urirppttttttttttttttrrrr0l2-::-2l0rrrrttttttttttttttttrrrrg,4#+@4,v9rrrrttttttt",
"tttttrrrrr98N*doooH-789rDrrrrttttttttttrrrru052-+oo+-250urrrrccttttttttpprrrrugs4:o$o:>J89rrrrrttttt",
"tttttrrrr98,;dOowoo+-2<Krirrrttttttttttrrrr0l2-+oooo+-2l0rrrrccttttttttpprrrrg,4#oo oo:&Jv9rrrrttttt",
"tttrrrrr98,=dBoXX  oHLG<9ryrrrrttttttrrrru052-+oo  oo+-250urzrrccttttpprrir9gs>@o    oo:>J89rrrrrttt",
"tttrrrr98,4@OooXX  oo:L2<juyrrrttttttrrrr0l2-+oo%  %oo+-2l0rrzrccttttpprirrg,>d+o    %oo:&Jv9rrrrttt",
"trrrrr98,>@ooXXXX  $$oH-S<b9rrrrrttrrrru052-+oo..  ..oo+-21PurrrrttpprrDr98N4@+oo      oo:>J89rrrrrt",
"trrrr9v,4:oo6XXXX  $$oo+d*sg9rrrrttrrrr0l2-+ooo..  ..ooo+->,8urrrttpprDuK<2&+oooo      %oo:&Jv9rrrrt",
"rrrr98J>:oo            ood*N89rrrrrrru052-+oo....  ....oo+@>78urrrrrrDuj<GLHo            oo:>J89rrrr",
"rrr9vJ&:oo%            woOd;Ng9rrrrrr0l2-+oo%....  ....%oo+d>,8urrrrirK<2L:oo            %oo:&Jv9rrr",
"rr98,>:oo              oooBd=N89ryrr052-+oo              oo+@>789riir9<GLHo$$              oo:>J89rr",
"r98,4:oo%              ooooO@;l09rrtq2-+oo%              ooo+d>,8urru82L:oo$$              %oo:&Jv9r",
"t8,>:oo                oooooo@*1ej052-+oo..                oo+@>789987-Ho$$                  oo:>,80",
"5NAdoo$                oooo6oOd*15N2-+ooo..                oooBI>,552-+oo$$                  %oo:4,1",
"2=dBoXX                    XXoBd=*;-+oo....                  %%B@42=-:o                        oo:>=",
"d@oooXX                    XXooo@d@+oo%....                  %%o+:@@:oo                        %oo:@",
"oooXXXX                    XXXXoooooo                          oooooo%%.                         ooo"
};
